<svg width="61" height="30" viewBox="0 0 61 30" fill="none" xmlns="http://www.w3.org/2000/svg">
<path d="M0.64 -9.53674e-07H9.48V2.52H3.28V5.72H9.24V8.24H3.28V11.48H9.72V14H0.64V-9.53674e-07ZM19.2661 12.68H19.6261V-9.53674e-07H22.2661V14H17.1061L15.4661 1.32H15.1061V14H12.4661V-9.53674e-07H17.6261L19.2661 12.68ZM24.5722 -9.53674e-07H34.6522V2.52H30.9322V14H28.2922V2.52H24.5722V-9.53674e-07ZM37.3783 -9.53674e-07H46.2183V2.52H40.0183V5.72H45.9783V8.24H40.0183V11.48H46.4583V14H37.3783V-9.53674e-07ZM58.8444 14H56.2044V9.8C56.2044 9.48 56.1177 9.22 55.9444 9.02C55.7844 8.82 55.511 8.72 55.1244 8.72H52.0844V14H49.4444V-9.53674e-07H54.8044C55.5244 -9.53674e-07 56.1577 0.099999 56.7044 0.299999C57.251 0.499999 57.7044 0.78 58.0644 1.14C58.4377 1.48667 58.7177 1.89333 58.9044 2.36C59.1044 2.82667 59.2044 3.32667 59.2044 3.86V4.34C59.2044 4.91333 59.051 5.45333 58.7444 5.96C58.4377 6.45333 57.9644 6.83333 57.3244 7.1V7.46C57.791 7.51333 58.1577 7.69333 58.4244 8C58.7044 8.30667 58.8444 8.69333 58.8444 9.16V14ZM52.0844 6.2H54.6044C55.2444 6.2 55.731 6.05333 56.0644 5.76C56.3977 5.45333 56.5644 5.02667 56.5644 4.48V4.24C56.5644 3.77333 56.3977 3.37333 56.0644 3.04C55.731 2.69333 55.2444 2.52 54.6044 2.52H52.0844V6.2ZM9.86 30H7.22V25.8C7.22 25.48 7.13333 25.22 6.96 25.02C6.8 24.82 6.52667 24.72 6.14 24.72H3.1V30H0.46V16H5.82C6.54 16 7.17333 16.1 7.72 16.3C8.26667 16.5 8.72 16.78 9.08 17.14C9.45333 17.4867 9.73333 17.8933 9.92 18.36C10.12 18.8267 10.22 19.3267 10.22 19.86V20.34C10.22 20.9133 10.0667 21.4533 9.76 21.96C9.45333 22.4533 8.98 22.8333 8.34 23.1V23.46C8.80667 23.5133 9.17333 23.6933 9.44 24C9.72 24.3067 9.86 24.6933 9.86 25.16V30ZM3.1 22.2H5.62C6.26 22.2 6.74667 22.0533 7.08 21.76C7.41333 21.4533 7.58 21.0267 7.58 20.48V20.24C7.58 19.7733 7.41333 19.3733 7.08 19.04C6.74667 18.6933 6.26 18.52 5.62 18.52H3.1V22.2ZM12.8861 16H21.7261V18.52H15.5261V21.72H21.4861V24.24H15.5261V27.48H21.9661V30H12.8861V16ZM25.1322 16H27.7722V27.48H34.1322V30H25.1322V16ZM44.2383 27H39.4783L38.7983 30H36.0383L39.3783 16H44.3383L47.6783 30H44.9183L44.2383 27ZM40.0383 24.48H43.6583L42.0383 17.32H41.6783L40.0383 24.48ZM52.7844 25.08H52.1844L48.1644 16H51.0444L53.9244 22.68H54.2844L57.1644 16H60.0444L56.0244 25.08H55.4244V30H52.7844V25.08Z" fill="white"/>
</svg>
